Coordinates
version=1
nRows=10
nColumns=22
inDegrees=yes

Units are S.I. units (second, meters, Newtons, ...)
If the header above contains a line with 'inDegrees', this indicates whether rotational values are in degrees (yes) or radians (no).

endheader
time	pelvis_tilt	pelvis_list	pelvis_rotation	pelvis_tx	pelvis_ty	pelvis_tz	hip_flexion_r	hip_adduction_r	hip_rotation_r	knee_angle_r	ankle_angle_r	subtalar_angle_r	hip_flexion_l	hip_adduction_l	hip_rotation_l	knee_angle_l	ankle_angle_l	subtalar_angle_l	lumbar_extension	lumbar_bending	lumbar_rotation
      1.26000000	     -3.14983337	      0.40696869	      2.96052169	     -1.06931959	      1.05834561	     -0.64704668	     30.17467127	     -0.90344100	     -2.82798089	    -39.31606766	     11.27062333	     -0.92378857	     -2.08784922	      4.86365204	      1.22464706	    -12.40175072	     18.34935461	     -2.85498010	     -8.51717776	     -2.55242106	     -8.65705172
      1.27000000	     -3.23686150	      0.25008901	      3.02659787	     -1.06508763	      1.05764523	     -0.64715994	     30.29101197	     -0.68201706	     -3.25066252	    -37.61948825	     11.20447445	     -0.83169257	     -2.19914855	      4.68273069	      1.23482338	    -12.47473970	     18.57704755	     -2.87250728	     -8.55512594	     -2.40924813	     -8.63294072
      1.28000000	     -3.34070100	      0.08372889	      3.08164071	     -1.06067101	      1.05687102	     -0.64719224	     30.38461239	     -0.43009027	     -3.67262310	    -35.85651546	     11.09769420	     -0.71782914	     -2.30965160	      4.48857084	      1.23497384	    -12.53160897	     18.80167051	     -2.91091697	     -8.56200840	     -2.25921849	     -8.59103851
      1.29000000	     -3.37877002	     -0.09608934	      3.16028988	     -1.05614266	      1.05615242	     -0.64715905	     30.36137079	     -0.14813671	     -4.09475103	    -34.02187999	     10.91833876	     -0.57266132	     -2.46761277	      4.26978213	      1.24947813	    -12.64493388	     19.07057938	     -2.98303951	     -8.65311963	     -2.09603593	     -8.57757871
      1.30000000	     -3.42746409	     -0.28349627	      3.22268001	     -1.05141008	      1.05536676	     -0.64705149	     30.31077251	      0.16825939	     -4.48301359	    -32.14123601	     10.70556437	     -0.44584689	     -2.64739230	      4.04151906	      1.25940653	    -12.71342556	     19.31785550	     -3.08160096	     -8.71641786	     -1.92374874	     -8.55920831
      1.31000000	     -3.50285742	     -0.47897669	      3.28566832	     -1.04658102	      1.05448076	     -0.64688030	     30.26383966	      0.50888791	     -4.84055918	    -30.23623288	     10.42886613	     -0.37010479	     -2.77560162	      3.80242051	      1.25455805	    -12.83611883	     19.58282262	     -3.18528877	     -8.75088594	     -1.74698007	     -8.52437483
      1.32000000	     -3.63066295	     -0.68104240	      3.34088010	     -1.04165173	      1.05345347	     -0.64663815	     30.25573858	      0.86986490	     -5.16446540	    -28.32640851	     10.09771447	     -0.33694079	     -2.83010590	      3.55661233	      1.22962294	    -13.00249438	     19.85729724	     -3.26916966	     -8.72460518	     -1.57076407	     -8.45521401
      1.33000000	     -3.69980055	     -0.89869302	      3.41232910	     -1.03652459	      1.05246826	     -0.64638931	     30.14352772	      1.25111063	     -5.47747483	    -26.38705883	      9.78350816	     -0.38633535	     -2.96623734	      3.28729482	      1.20876364	    -13.14874495	     20.16446179	     -3.32778865	     -8.75771230	     -1.36265632	     -8.44419778
      1.34000000	     -3.85192481	     -1.11782814	      3.46925175	     -1.03132327	      1.05129260	     -0.64607777	     30.11805769	      1.63777606	     -5.76211676	    -24.47929858	      9.45086211	     -0.43822783	     -2.98588550	      3.02109498	      1.17355151	    -13.35965984	     20.46543389	     -3.36884104	     -8.69755781	     -1.16236408	     -8.36732908
      1.35000000	     -3.96177123	     -1.34778625	      3.54152065	     -1.02591096	      1.05013455	     -0.64577926	     30.01493595	      2.02707004	     -6.06537364	    -22.57292226	      9.18032565	     -0.58371595	     -3.06986589	      2.73744582	      1.14021115	    -13.55322953	     20.79311050	     -3.35850236	     -8.67571197	     -0.93289479	     -8.34633684
